<svg xmlns="http://www.w3.org/2000/svg" width="534" height="644" viewBox="0 0 534 644" version="1.1">
	<path d="M 119.500 10.641 C 110.582 11.504, 88.625 12.087, 59.014 12.248 C 15.651 12.483, 12.504 12.618, 12.190 14.250 C 11.901 15.754, 12.671 16.001, 17.677 16.008 C 31.510 16.025, 44.893 20.194, 50.836 26.336 C 54.939 30.577, 57.757 37.258, 58.964 45.608 C 60.358 55.249, 60.354 358.729, 58.960 369.845 C 57.706 379.850, 54.799 388.020, 50.924 392.433 C 45.596 398.502, 34.385 402.150, 16.750 403.554 C 11.026 404.009, 9 404.541, 9 405.585 C 9 406.792, 19.538 407, 80.573 407 C 148.199 407, 152.128 406.903, 151.812 405.250 C 151.526 403.755, 149.806 403.398, 139.989 402.802 C 116.939 401.401, 108.732 396.292, 103.356 380 C 101.672 374.897, 101.519 368.486, 101.232 291.112 L 100.924 207.725 118.212 208.268 C 142.605 209.034, 153.662 212.245, 166.836 222.390 C 176.862 230.111, 192.759 252.165, 198.271 266 C 199.696 269.575, 201.364 276.325, 201.979 281 C 202.772 287.025, 202.997 329.253, 202.751 426 C 202.376 573.364, 202.603 567.174, 197.193 577.666 C 193.451 584.923, 186.452 588.088, 170.187 589.878 C 161.437 590.840, 160.391 591.206, 161.459 592.933 C 162.185 594.109, 270.298 594.487, 279.786 593.348 C 287.747 592.392, 285.656 590.601, 275.681 589.834 C 260.189 588.643, 251.134 584.072, 247.050 575.382 C 242.473 565.647, 242.008 557.979, 242.004 492.265 L 242 431.030 250.344 422.515 C 254.933 417.832, 259.096 414.022, 259.594 414.049 C 260.092 414.076, 263.495 418.014, 267.156 422.799 C 279.513 438.953, 303.406 469.339, 327.075 499 C 340.022 515.225, 356.859 536.375, 364.491 546 C 409.017 602.157, 421.845 614.946, 444.255 625.523 C 457.808 631.919, 468.327 634.134, 487.985 634.732 C 507.370 635.321, 525 633.766, 525 631.467 C 525 630.583, 522.811 629.949, 518.250 629.510 C 500.039 627.759, 483.330 620.798, 468.434 608.758 C 454.345 597.370, 445.468 587.459, 406.412 539.500 C 375.640 501.715, 287.632 391.985, 285.992 389.358 C 284.812 387.469, 288.400 383.671, 335.610 336.839 C 363.599 309.073, 389.200 283.899, 392.500 280.895 C 416.570 258.987, 433.402 249.751, 456.268 245.909 C 462.575 244.849, 464 244.277, 464 242.805 C 464 241.087, 461.335 241, 408.500 241 C 354.962 241, 353 241.066, 353 242.869 C 353 244.858, 356.935 245.967, 364.068 245.989 C 369.442 246.006, 377.514 248.720, 381.058 251.702 C 384.065 254.232, 384.192 254.635, 383.820 260.427 C 383.008 273.064, 376.432 281.417, 331.617 326.742 C 313.403 345.164, 285.788 373.120, 270.252 388.868 L 242.003 417.500 242.283 343 C 242.600 258.534, 242.342 261.395, 250.368 253.368 C 255.408 248.328, 261.877 246.143, 274.250 245.300 C 281.886 244.780, 283 244.468, 283 242.852 C 283 241.090, 281.524 241, 252.608 241 L 222.216 241 215.089 232.605 C 211.169 227.987, 206.057 222.660, 203.731 220.768 C 198.518 216.528, 186.097 209, 184.313 209 C 181.214 209, 183.384 207.142, 187.750 206.058 C 210.443 200.423, 237.012 188.899, 250.500 178.842 C 273.607 161.611, 288.074 139.235, 292.053 114.573 C 293.570 105.170, 292.756 85.801, 290.496 77.500 C 286.480 62.751, 276.915 48.418, 264.103 37.949 C 251.421 27.588, 235.653 20.281, 213.616 14.555 C 192.751 9.134, 152.412 7.456, 119.500 10.641 M 134 18.031 C 124.028 19.030, 110.451 21.533, 105.500 23.285 L 101.500 24.701 101.244 111.241 C 101.024 185.977, 101.186 197.857, 102.435 198.337 C 106.658 199.957, 131.037 201.199, 149.728 200.746 C 167.893 200.305, 171.755 199.914, 180.500 197.629 C 209.950 189.934, 235.390 169.093, 246.124 143.868 C 251.074 132.235, 253.112 122.723, 253.701 108.500 C 254.334 93.222, 252.668 82.344, 247.650 69 C 243.435 57.791, 238.567 50.682, 228.838 41.529 C 214.368 27.917, 194.905 20.334, 168.685 18.093 C 154.682 16.897, 145.490 16.880, 134 18.031" stroke="none" fill="#1d4165" fill-rule="evenodd"/>
</svg>