<svg xmlns="http://www.w3.org/2000/svg" width="1207" height="581" viewBox="0 0 1207 581" version="1.1">
	<path d="M 107.500 10.547 C 99.417 11.348, 78.897 11.867, 53.250 11.918 C 20.328 11.983, 12 12.260, 12 13.287 C 12 14.184, 15.168 14.907, 22.459 15.673 C 41.255 17.649, 49.623 23.547, 53.165 37.312 C 54.249 41.523, 54.500 70.089, 54.500 189 L 54.500 335.500 52.222 342.747 C 49.491 351.436, 45.741 356.037, 38.682 359.356 C 33.146 361.959, 22.325 364, 14.058 364 C 10.229 364, 9 364.364, 9 365.500 C 9 366.818, 16.778 367, 73 367 C 124.617 367, 137 366.750, 137 365.709 C 137 364.798, 133.687 364.083, 125.750 363.281 C 108.574 361.546, 103.262 359.306, 97.782 351.485 C 92.227 343.559, 92.036 340.554, 92.017 260.608 L 92 187.716 107.750 188.278 C 132.600 189.163, 142.755 192.823, 155.540 205.500 C 167.706 217.564, 178.624 235.060, 181.439 247.004 C 182.771 252.653, 182.972 269.803, 182.985 378.566 C 182.995 464.578, 182.660 505.473, 181.911 509.526 C 180.581 516.719, 176.950 524.147, 173.735 526.254 C 170.090 528.643, 161.700 530.853, 153.441 531.602 C 148.158 532.080, 146 532.671, 146 533.638 C 146 534.771, 155.331 535, 201.500 535 C 250.167 535, 257 534.815, 257 533.500 C 257 532.434, 255.914 531.998, 253.250 531.994 C 240.828 531.975, 228.624 527.411, 224.555 521.263 C 219.242 513.234, 218.836 507.821, 218.886 445.633 L 218.932 388.765 224.216 383.139 C 227.122 380.045, 230.680 376.506, 232.122 375.275 L 234.744 373.038 250.083 392.769 C 258.519 403.621, 276.714 426.675, 290.516 444 C 304.318 461.325, 320.957 482.250, 327.491 490.500 C 360.266 531.883, 375.200 548.329, 387.230 556.289 C 406.039 568.734, 429.042 573.998, 455.663 571.950 C 468.911 570.931, 473 570.122, 473 568.524 C 473 567.703, 470.272 567.098, 464.750 566.695 C 452.329 565.790, 440.072 561.173, 427.537 552.677 C 414.406 543.779, 398.484 526.093, 354.902 472 C 280.819 380.049, 256.851 349.924, 257.189 349.183 C 258.300 346.742, 356.331 251.006, 364 244.873 C 380.880 231.372, 390.701 226.456, 408.250 222.725 C 414.639 221.367, 418 220.195, 418 219.326 C 418 218.242, 408.848 218, 367.927 218 C 320.777 218, 317.873 218.102, 318.188 219.750 C 318.463 221.187, 320.042 221.620, 327.011 222.171 C 345.331 223.618, 350.272 230.059, 343.808 244.064 C 339.371 253.675, 328.629 265.436, 273.537 321 L 219.500 375.500 219 342.500 C 218.725 324.350, 218.727 293.750, 219.005 274.500 C 219.450 243.697, 219.725 239.022, 221.303 235.514 C 223.554 230.507, 226.518 227.303, 231 225.031 C 234.789 223.111, 245.435 221, 251.332 221 C 253.926 221, 255 220.561, 255 219.500 C 255 218.204, 251.295 217.997, 227.750 217.976 L 200.500 217.953 197.500 213.882 C 191.852 206.218, 179.741 195.615, 172 191.558 L 164.500 187.626 170 186.266 C 188.178 181.771, 208.398 173.336, 222.129 164.521 C 226.230 161.889, 233.936 155.275, 239.500 149.612 C 250.546 138.371, 256.033 129.797, 260.692 116.500 C 263.352 108.907, 263.494 107.610, 263.488 91 C 263.482 75.274, 263.247 72.841, 261.173 67 C 250.224 36.169, 219.798 16.529, 173.699 10.535 C 159.383 8.673, 126.332 8.679, 107.500 10.547 M 124.500 16.679 C 116.916 17.329, 101.488 20.073, 96.750 21.615 L 92 23.161 92 101.013 C 92 174.286, 92.103 178.897, 93.750 179.404 C 97.467 180.548, 118.101 181.998, 130.678 181.999 C 147.047 182, 156.792 180.684, 169 176.824 C 196.719 168.059, 217.641 147.259, 226.157 120 C 228.239 113.334, 228.500 110.553, 228.500 95 C 228.500 75.525, 227.243 69.390, 220.517 56.033 C 211.715 38.555, 194.049 25.465, 172 20.083 C 159.409 17.009, 138.299 15.497, 124.500 16.679 M 670.184 170.886 C 668.983 173.024, 668 175.049, 668 175.386 C 668 175.724, 669.955 176, 672.345 176 C 679.387 176, 680 177.352, 680 192.894 C 680 206.377, 680.570 209.095, 683.722 210.632 C 684.700 211.109, 695.850 211.724, 708.500 211.999 L 731.500 212.500 731.794 219.756 C 732.206 229.931, 730.431 233.259, 717 247.500 C 703.689 261.614, 701.924 264.937, 701.224 277.204 L 700.723 286 708.791 286 L 716.860 286 715.930 282.757 C 714.532 277.883, 714.810 269.390, 716.499 265.348 C 717.324 263.374, 723.165 256.477, 729.480 250.020 C 744.291 234.877, 745.977 231.523, 745.990 217.173 C 746 207.087, 745.932 206.778, 743.077 203.923 L 740.154 201 718.511 201 C 705.505 201, 696.097 200.587, 694.934 199.965 C 693.199 199.036, 692.999 197.776, 692.994 187.715 C 692.988 175.214, 691.840 169.520, 689.022 168.012 C 687.982 167.455, 683.810 167, 679.750 167 L 672.368 167 670.184 170.886 M 511.481 198.261 C 508.980 205.182, 508.244 207.911, 508.743 208.410 C 509.068 208.734, 512.601 209, 516.595 209 C 521.864 209, 524.289 209.431, 525.429 210.571 C 526.816 211.959, 527 218.158, 527 263.639 L 527 315.135 529.250 314.439 C 530.487 314.056, 533.451 312.761, 535.834 311.561 L 540.169 309.379 540.115 259.939 C 540.085 232.748, 540.047 209.017, 540.031 207.205 C 540.011 205.068, 539.137 203.046, 537.545 201.455 C 535.304 199.213, 534.312 199, 526.111 199 C 521.171 199, 515.960 198.555, 514.529 198.011 C 512.622 197.286, 511.809 197.353, 511.481 198.261 M 770.744 203.668 C 769.228 207.327, 768.252 210.586, 768.576 210.911 C 768.899 211.235, 783.391 211.631, 800.779 211.791 C 821.554 211.982, 832.841 212.453, 833.697 213.164 C 835.349 214.534, 835.330 220.726, 833.650 228.743 C 832.209 235.621, 829.079 240.705, 818.533 253.297 C 809.616 263.944, 808.782 265.839, 808.212 276.745 L 807.727 286 815.409 286 L 823.091 286 822.295 282.250 C 820.979 276.045, 821.501 267.776, 823.447 264 C 824.439 262.075, 828.261 257.125, 831.939 253 C 841.024 242.813, 844.962 236.797, 847.152 229.760 C 849.268 222.960, 849.619 210.453, 847.805 206.472 C 845.437 201.274, 843.622 201, 811.510 201 C 783.894 201, 781.659 200.867, 778 199 C 775.844 197.900, 773.949 197.003, 773.790 197.008 C 773.630 197.012, 772.260 200.009, 770.744 203.668 M 971.019 199.450 C 970.530 200.735, 969.826 203.410, 969.454 205.393 L 968.777 209 976.266 209 C 981.533 209, 984.107 209.423, 984.940 210.427 C 986.024 211.734, 989.410 223.386, 998.473 257 C 1000.327 263.875, 1002.328 270.767, 1002.922 272.315 C 1003.515 273.863, 1004 275.284, 1004 275.472 C 1004 275.753, 997.007 278.043, 973.243 285.546 C 972.292 285.846, 972.474 287.226, 973.993 291.221 C 975.096 294.125, 975.999 296.648, 975.999 296.829 C 976.001 297.573, 983.142 295.514, 993.500 291.784 C 1028.336 279.238, 1032.894 277.105, 1040.773 269.654 C 1051.127 259.863, 1054.874 248.250, 1055.739 223.278 C 1056.507 201.085, 1055.833 200.041, 1040 198.902 C 1034.775 198.526, 1029.660 198.056, 1028.633 197.859 C 1027.177 197.579, 1026.466 198.489, 1025.399 202 C 1023.236 209.114, 1023.130 209, 1031.845 209 C 1043.218 209, 1043.469 209.392, 1042.571 225.730 C 1041.351 247.934, 1038.833 256.009, 1030.547 264.295 C 1026.430 268.412, 1017.706 273.039, 1016.443 271.776 C 1015.964 271.297, 1014.096 264.771, 1008.493 244 C 1007.232 239.325, 1004.482 228.300, 1002.382 219.500 C 997.601 199.464, 997.237 199, 986.289 199 C 981.998 199, 977.006 198.575, 975.197 198.057 C 972.244 197.210, 971.817 197.352, 971.019 199.450 M 1077.107 201.209 C 1076.428 203.569, 1075.646 206.287, 1075.369 207.250 C 1074.919 208.813, 1075.721 209, 1082.861 209 C 1088.797 209, 1091.262 209.405, 1092.429 210.571 C 1093.800 211.943, 1094 216.833, 1094 249.071 L 1094 286 1101 286 L 1108 286 1108 246.450 C 1108 204.613, 1107.772 202.389, 1103.287 200.483 C 1102.304 200.065, 1097 199.387, 1091.500 198.976 C 1086 198.566, 1080.789 197.934, 1079.921 197.573 C 1078.710 197.070, 1078.053 197.918, 1077.107 201.209 M 1134.017 201.694 C 1132.875 204.276, 1131.689 207.393, 1131.381 208.620 L 1130.821 210.851 1151.160 211.175 C 1175.023 211.556, 1177.833 212.378, 1181.666 220.092 C 1183.735 224.255, 1183.886 226.198, 1184.386 255 C 1184.677 271.775, 1184.934 285.613, 1184.957 285.750 C 1184.981 285.887, 1187.953 286, 1191.561 286 L 1198.122 286 1197.811 252.750 L 1197.500 219.500 1194.500 213.500 C 1192.152 208.805, 1190.435 206.851, 1186.601 204.514 C 1181.746 201.555, 1181.531 201.522, 1163.101 200.944 C 1148.778 200.495, 1143.645 199.975, 1140.782 198.681 C 1138.737 197.756, 1136.846 197, 1136.579 197 C 1136.312 197, 1135.159 199.112, 1134.017 201.694 M 571.006 200.500 C 570.593 201.600, 569.938 203.956, 569.551 205.735 L 568.848 208.969 573.861 208.548 C 580.074 208.025, 585.653 209.483, 586.988 211.978 C 589.926 217.468, 586.968 229.870, 580.766 238.065 C 577.009 243.028, 576.874 243.435, 578.573 244.677 C 579.568 245.405, 580.801 246, 581.312 246 C 581.824 246, 585.740 242.502, 590.015 238.228 C 596.423 231.819, 598.069 229.506, 599.394 225.046 C 602.312 215.220, 601.056 204.778, 596.502 201 C 595.221 199.937, 591.351 199.354, 583.226 199 C 572.434 198.530, 571.713 198.618, 571.006 200.500 M 915.127 202.816 C 914.472 205.265, 914.089 207.422, 914.276 207.610 C 914.464 207.797, 917.925 208.258, 921.967 208.634 C 932.146 209.580, 933.399 210.939, 932.780 220.374 C 932.272 228.112, 929.351 235.196, 924.526 240.386 C 922.169 242.922, 922.021 243.450, 923.310 244.739 C 925.547 246.975, 928.146 245.601, 935.783 238.144 C 943.877 230.240, 945.912 225.527, 946.222 213.959 C 946.559 201.390, 944.179 199.473, 927.409 198.805 L 916.318 198.364 915.127 202.816 M 623.053 202.750 C 622.480 204.813, 622.009 206.810, 622.006 207.189 C 622.003 207.569, 625.237 208.198, 629.194 208.588 C 638.478 209.503, 641 211.678, 641 218.773 C 641 225.843, 638.587 232.773, 634.055 238.720 C 630.086 243.927, 630.082 243.944, 632.199 245.427 C 634.151 246.794, 634.615 246.681, 637.976 244.019 C 643.923 239.309, 650.043 232.156, 652.095 227.519 C 656.306 217.999, 655.449 205.072, 650.341 201.054 C 648.042 199.245, 646.319 199, 635.912 199 L 624.094 199 623.053 202.750 M 777.038 235.036 C 774.035 236.116, 771.560 237, 771.538 237 C 771.517 236.999, 771.623 254.549, 771.773 276 C 771.923 297.450, 772.316 315, 772.646 315 C 772.976 315, 775.891 313.546, 779.123 311.769 L 785 308.538 785 270.769 C 785 241.201, 784.729 233.008, 783.750 233.036 C 783.063 233.056, 780.042 233.956, 777.038 235.036 M 648 355.787 C 648 356.364, 647.741 357.512, 647.424 358.339 C 647.028 359.368, 647.579 359.945, 649.174 360.170 C 651.420 360.489, 651.518 360.897, 652.024 372.081 C 652.605 384.923, 653.701 387.760, 659.175 390.591 C 663.591 392.874, 674.080 392.713, 678.280 390.297 C 683.617 387.226, 685.361 382.236, 685.436 369.824 C 685.509 357.511, 684.852 356.192, 678.198 355.300 C 672.024 354.472, 669.171 355.574, 667.292 359.514 C 665.405 363.470, 666.093 365.050, 668.608 362.535 C 671.229 359.914, 674.843 358.846, 677.065 360.035 C 678.758 360.941, 679 362.195, 679 370.067 C 679 384.114, 676.560 388, 667.740 388 C 664.315 388, 662.815 387.433, 660.924 385.424 C 658.698 383.058, 658.459 381.836, 658 370.472 C 657.722 363.595, 657.017 357.615, 656.414 357.012 C 654.879 355.479, 648 354.478, 648 355.787 M 702.667 355.667 C 702.300 356.033, 702 357.158, 702 358.167 C 702 359.537, 702.758 360, 705 360 C 708.349 360, 708.609 360.610, 706.468 363.441 C 705.459 364.775, 705 367.901, 705.002 373.441 C 705.004 387.292, 709.422 392.249, 721.841 392.337 C 729.380 392.390, 733.312 390.862, 736.410 386.677 C 738.243 384.201, 738.500 382.450, 738.500 372.454 C 738.500 359.454, 737.601 357.623, 730.401 355.953 C 725.887 354.905, 703.657 354.676, 702.667 355.667 M 754.142 357.127 C 753.316 359.343, 753.514 359.520, 757.124 359.807 C 759.558 360.001, 761.340 360.766, 761.932 361.873 C 763.256 364.347, 761.626 370.704, 758.934 373.571 C 757.025 375.602, 756.928 376.035, 758.269 376.550 C 760.558 377.428, 764.578 374.409, 766.493 370.374 C 768.509 366.125, 768.953 358.553, 767.284 356.884 C 766.616 356.216, 763.585 355.464, 760.548 355.212 C 755.454 354.790, 754.958 354.938, 754.142 357.127 M 791.854 355.706 C 787.825 356.325, 786.070 359.041, 785.370 365.738 C 784.780 371.375, 784.925 372.015, 787.321 374.412 C 789.391 376.482, 790.877 377, 794.742 377 C 798.858 377, 799.597 376.703, 799.725 375 C 799.847 373.381, 799.259 373, 796.638 373 C 792.349 373, 791 371.445, 791 366.500 C 791 364.245, 791.540 361.860, 792.200 361.200 C 792.875 360.525, 796.109 360, 799.589 360 C 808.507 360, 810.311 361.713, 810.789 370.630 C 811.239 379.024, 809.473 384.953, 806 386.707 C 803.036 388.205, 792.200 388.407, 788.583 387.032 C 786.480 386.232, 785.852 386.408, 784.978 388.041 C 783.326 391.127, 787.721 392.240, 799.858 391.809 C 810.018 391.449, 810.270 391.381, 813.027 388.296 C 816.308 384.624, 817.635 377.155, 816.607 368.157 C 815.840 361.449, 813.558 357.936, 808.906 356.306 C 805.621 355.155, 797.337 354.864, 791.854 355.706 M 831 356.051 C 831 356.483, 830.727 357.548, 830.393 358.418 C 829.867 359.789, 830.999 360, 838.893 360 C 851.961 360, 852 360.054, 852 378 L 852 392 855 392 L 858 392 858 378.065 C 858 370.401, 857.570 362.999, 857.045 361.617 C 855.314 357.066, 851.889 355.763, 840.977 355.503 C 835.490 355.373, 831 355.620, 831 356.051 M 876 355.807 C 876 356.373, 875.727 357.548, 875.393 358.418 C 874.909 359.680, 875.515 360, 878.393 360 C 880.377 360, 882 360.156, 882 360.346 C 882 360.537, 881.275 362.145, 880.390 363.921 C 879.073 366.561, 878.933 368.549, 879.623 374.825 C 880.925 386.662, 880.974 386.432, 877 387 C 874.320 387.383, 873.425 388.027, 873.180 389.750 C 872.880 391.867, 873.213 392, 878.808 392 C 887.111 392, 887.703 391.088, 886.189 380.618 C 884.583 369.510, 884.693 364.884, 886.629 362.120 C 888.133 359.972, 888.826 359.823, 895.727 360.172 C 905.912 360.686, 906 360.841, 906 378.191 L 906 392 909 392 L 912 392 912 378.065 C 912 356.201, 911.523 355.696, 890.307 355.148 C 880.924 354.905, 876 355.132, 876 355.807 M 927.650 356.470 C 926.567 359.293, 926.884 359.854, 929.750 360.184 L 932.500 360.500 932.775 376.250 L 933.051 392 936.025 392 L 939 392 939 375.122 C 939 356.309, 938.965 356.207, 932.189 355.299 C 929.141 354.890, 928.159 355.143, 927.650 356.470 M 953.667 355.667 C 953.300 356.033, 953 357.131, 953 358.106 C 953 359.433, 953.943 359.957, 956.750 360.190 C 960.415 360.493, 960.507 360.600, 960.816 364.916 C 961.052 368.223, 960.587 370.067, 958.963 372.263 C 955.926 376.372, 957.894 378.382, 961.582 374.937 C 965.468 371.306, 967 367.672, 967 362.085 C 967 358.151, 966.583 356.847, 965.066 356.035 C 962.920 354.887, 954.712 354.621, 953.667 355.667 M 981.571 356.675 C 980.536 359.374, 980.967 360, 983.861 360 C 986.691 360, 986.711 360.042, 985.696 363.844 C 984.909 366.793, 985.118 370.457, 986.595 379.594 L 988.519 391.500 991.895 391.823 C 994.813 392.103, 995.175 391.900, 994.564 390.323 C 993.177 386.743, 990.676 365.427, 991.335 362.801 C 991.865 360.688, 992.688 360.061, 995.253 359.813 C 997.729 359.574, 998.500 359.025, 998.499 357.500 C 998.498 355.676, 997.779 355.486, 990.320 355.344 C 983.899 355.221, 982.019 355.507, 981.571 356.675 M 1010 355.918 C 1010 356.423, 1009.737 357.521, 1009.417 358.357 C 1008.960 359.548, 1009.771 359.944, 1013.167 360.188 L 1017.500 360.500 1017.438 365.235 C 1017.392 368.788, 1016.783 370.602, 1015.001 372.499 C 1013.172 374.446, 1012.898 375.298, 1013.811 376.211 C 1014.723 377.123, 1015.604 376.940, 1017.646 375.415 C 1023.807 370.815, 1026.245 359.686, 1021.777 356.557 C 1019.390 354.884, 1010 354.375, 1010 355.918 M 1044.225 355.653 C 1040.625 356.433, 1038.569 360.575, 1038.532 367.119 C 1038.491 374.526, 1040.008 376.170, 1047.449 376.787 C 1052.586 377.213, 1053 377.089, 1053 375.124 C 1053 373.511, 1052.383 373, 1050.434 373 C 1045.697 373, 1044 371.329, 1044 366.665 C 1044 364.319, 1044.540 361.860, 1045.200 361.200 C 1047.219 359.181, 1058.385 359.681, 1061.139 361.914 C 1063.309 363.673, 1063.500 364.567, 1063.500 372.996 C 1063.500 382.162, 1063.499 382.167, 1060.100 385.203 C 1056.807 388.145, 1056.462 388.224, 1049.100 387.746 C 1044.920 387.474, 1040.753 386.938, 1039.840 386.554 C 1038.665 386.059, 1037.982 386.483, 1037.499 388.003 C 1037.124 389.184, 1037.111 390.444, 1037.469 390.802 C 1037.827 391.161, 1042.720 391.624, 1048.340 391.832 C 1065.306 392.460, 1069.066 389.623, 1069.794 375.643 C 1070.633 359.540, 1067.788 355.772, 1054.500 355.390 C 1050.100 355.263, 1045.476 355.381, 1044.225 355.653 M 713.057 361.431 C 711.456 363.360, 710.578 372.701, 711.451 378.521 C 712.468 385.302, 715.476 388, 722.020 388 C 724.831 388, 727.955 387.559, 728.961 387.021 C 731.687 385.562, 733 380.631, 733 371.851 C 733 361.258, 731.792 360, 721.622 360 C 716.443 360, 713.891 360.426, 713.057 361.431 M 525.250 372.250 C 525.573 373.221, 535.875 373.558, 571.333 373.760 C 611.510 373.989, 617 373.839, 617 372.510 C 617 371.185, 611.350 371, 570.917 371 C 534.495 371, 524.921 371.262, 525.250 372.250 M 1102 372.500 C 1102 373.812, 1107.944 374, 1149.500 374 C 1191.056 374, 1197 373.812, 1197 372.500 C 1197 371.188, 1191.056 371, 1149.500 371 C 1107.944 371, 1102 371.188, 1102 372.500" stroke="none" fill="#1d4165" fill-rule="evenodd"/>
</svg>